<svg width="32" height="32" viewBox="0 0 32 32" fill="none" xmlns="http://www.w3.org/2000/svg">
  <rect width="32" height="32" rx="8" fill="#0a0a0a"/>
  
  <circle cx="16" cy="16" r="10" fill="url(#paint0_radial)" fill-opacity="0.3"/>
  
  <path d="M16 10C13.7909 10 12 11.7909 12 14V16H11C10.4477 16 10 16.4477 10 17V22C10 22.5523 10.4477 23 11 23H21C21.5523 23 22 22.5523 22 22V17C22 16.4477 21.5523 16 21 16H20V14C20 11.7909 18.2091 10 16 10ZM14 14C14 12.8954 14.8954 12 16 12C17.1046 12 18 12.8954 18 14V16H14V14ZM16 18.5C16.5523 18.5 17 18.9477 17 19.5C17 20.0523 16.5523 20.5 16 20.5C15.4477 20.5 15 20.0523 15 19.5C15 18.9477 15.4477 18.5 16 18.5Z" fill="white"/>

  <defs>
    <radialGradient id="paint0_radial" cx="0" cy="0" r="1" gradientUnits="userSpaceOnUse" gradientTransform="translate(16 16) rotate(90) scale(12)">
      <stop stop-color="white"/>
      <stop offset="1" stop-color="white" stop-opacity="0"/>
    </radialGradient>
  </defs>
</svg>
